<?xml version="1.0" encoding="UTF-8" standalone="no"?>
<!DOCTYPE svg PUBLIC "-//W3C//DTD SVG 1.1//EN" "http://www.w3.org/Graphics/SVG/1.1/DTD/svg11.dtd">
<svg width="100%" height="100%" viewBox="0 0 260 260" version="1.1" xmlns="http://www.w3.org/2000/svg" xmlns:xlink="http://www.w3.org/1999/xlink" xml:space="preserve" xmlns:serif="http://www.serif.com/" style="fill-rule:evenodd;clip-rule:evenodd;stroke-linejoin:round;stroke-miterlimit:2;">
    <g transform="matrix(1,0,0,1,-1449.37,-296.415)">
        <g id="Jewel" transform="matrix(0.228571,0,0,0.228571,1254.39,278.005)">
            <rect x="853.041" y="80.543" width="1137.5" height="1137.5" style="fill:none;"/>
            <g transform="matrix(3.14997,0,0,3.14997,-1199.86,-541.061)">
                <path d="M778.555,322.669L832.284,361.03L885.99,322.669L885.99,244.397L778.555,244.397L778.555,322.669ZM778.555,511.391L885.99,511.391L885.99,441.117L832.284,402.768L778.555,441.117L778.555,511.391ZM902.983,545.342L761.579,545.342C752.196,545.342 744.616,537.732 744.616,528.366L744.616,432.387C744.616,426.903 747.276,421.752 751.727,418.582L803.082,381.899L751.727,345.216C747.276,342.026 744.616,336.874 744.616,331.392L744.616,227.422C744.616,218.046 752.196,210.446 761.579,210.446L902.983,210.446C912.35,210.446 919.938,218.046 919.938,227.422L919.938,331.392C919.938,336.874 917.294,342.026 912.838,345.216L861.483,381.899L912.838,418.582C917.294,421.752 919.938,426.903 919.938,432.387L919.938,528.366C919.938,537.732 912.35,545.342 902.983,545.342" style="fill:rgb(40,52,59);fill-rule:nonzero;"/>
            </g>
        </g>
    </g>
</svg>
