<?xml version="1.0" standalone="no"?>
<!DOCTYPE svg PUBLIC "-//W3C//DTD SVG 20010904//EN"
 "http://www.w3.org/TR/2001/REC-SVG-20010904/DTD/svg10.dtd">
<svg version="1.0" xmlns="http://www.w3.org/2000/svg"
 width="700.000000pt" height="700.000000pt" viewBox="0 0 700.000000 700.000000"
 preserveAspectRatio="xMidYMid meet">
<metadata>
Created by potrace 1.14, written by Peter Selinger 2001-2017
</metadata>
<g transform="translate(0.000000,700.000000) scale(0.100000,-0.100000)"
fill="#000000" stroke="none">
<path d="M2053 6735 c-97 -22 -177 -88 -222 -184 l-26 -56 0 -1086 0 -1086 33
-66 c19 -36 48 -79 65 -94 18 -15 256 -188 530 -383 396 -282 495 -357 485
-366 -15 -14 -64 -50 -605 -436 -214 -152 -405 -295 -426 -317 -21 -23 -48
-63 -60 -89 l-22 -47 0 -1010 0 -1010 28 -59 c34 -73 103 -139 176 -168 l56
-22 1415 -1 c1032 -1 1429 2 1465 10 116 27 207 112 239 225 14 49 15 171 13
1045 l-2 990 -27 55 c-39 77 -56 95 -208 203 -74 54 -146 105 -159 115 -13 9
-76 54 -140 99 -64 46 -127 91 -140 100 -13 10 -119 86 -235 169 -116 82 -209
154 -206 160 2 5 232 171 510 370 385 275 514 372 541 409 72 94 69 37 67
1225 l-3 1065 -27 57 c-42 89 -122 158 -213 183 -48 14 -2843 13 -2902 0z
m2485 -1408 l-3 -761 -450 -322 c-247 -177 -480 -343 -518 -369 l-67 -47 -53
37 c-28 20 -63 45 -77 55 -14 10 -218 157 -455 326 -236 168 -436 312 -443
318 -12 12 -13 78 -12 1288 l0 237 1040 0 1040 0 -2 -762z m-786 -2489 c133
-95 267 -191 298 -213 32 -22 155 -110 274 -195 l216 -154 0 -223 c1 -123 1
-333 1 -468 0 -135 0 -342 -1 -460 l0 -215 -1040 0 -1040 0 -2 677 c-2 538 0
679 10 689 7 7 106 80 220 161 114 81 212 152 217 156 6 5 116 84 245 175 129
92 258 184 285 205 28 20 56 37 63 37 7 0 122 -78 254 -172z"/>
</g>
</svg>
