<?xml version="1.0" encoding="UTF-8" standalone="no"?>
<!DOCTYPE svg PUBLIC "-//W3C//DTD SVG 1.1//EN" "http://www.w3.org/Graphics/SVG/1.1/DTD/svg11.dtd">
<svg width="100%" height="100%" viewBox="0 0 260 100" version="1.1" xmlns="http://www.w3.org/2000/svg" xmlns:xlink="http://www.w3.org/1999/xlink" xml:space="preserve" xmlns:serif="http://www.serif.com/" style="fill-rule:evenodd;clip-rule:evenodd;stroke-linejoin:round;stroke-miterlimit:2;">
    <g id="Artboard1" transform="matrix(0.265306,0,0,0.125,0,0)">
        <rect x="0" y="0" width="980" height="800" style="fill:none;"/>
        <g transform="matrix(2.20138,0,0,4.67231,-22912.9,-12285.3)">
            <g>
                <g transform="matrix(1,0,0,1,10422,2630.35)">
                    <path d="M207.925,146.042C193.602,146.042 181.946,134.379 181.946,120.063C181.946,105.751 193.602,94.096 207.925,94.096C222.241,94.096 233.895,105.751 233.895,120.063C233.895,134.379 222.241,146.042 207.925,146.042M207.925,77.07C184.212,77.07 164.923,96.354 164.923,120.063C164.923,143.769 184.212,163.067 207.925,163.067C231.633,163.067 250.922,143.769 250.922,120.063C250.922,96.354 231.633,77.07 207.925,77.07" style="fill:rgb(250,251,255);fill-rule:nonzero;"/>
                </g>
                <g transform="matrix(1,0,0,1,10422,2630.35)">
                    <path d="M115.795,49.229L115.795,77.07L105.79,77.07L105.79,94.096L115.795,94.096L116.54,163.067L133.57,163.067L132.823,94.096L151.127,94.096L151.127,77.07L132.823,77.07L132.823,49.229C132.823,34.905 144.468,23.261 158.795,23.261L158.795,6.229C135.079,6.229 115.795,25.511 115.795,49.229" style="fill:rgb(250,251,255);fill-rule:nonzero;"/>
                </g>
                <g transform="matrix(1,0,0,1,10422,2630.35)">
                    <path d="M291.461,120.063L291.461,49.229C291.461,25.511 272.17,6.229 248.457,6.229L248.457,23.261C262.776,23.261 274.434,34.905 274.434,49.229L274.434,120.063C274.434,143.769 293.724,163.067 317.432,163.067L317.432,146.042C303.108,146.042 291.461,134.379 291.461,120.063" style="fill:rgb(250,251,255);fill-rule:nonzero;"/>
                </g>
                <g transform="matrix(1,0,0,1,10422,2630.35)">
                    <path d="M369.761,146.042C355.436,146.042 343.787,134.379 343.787,120.063C343.787,105.751 355.436,94.096 369.761,94.096C384.073,94.096 395.723,105.751 395.723,120.063C395.723,134.379 384.073,146.042 369.761,146.042M395.723,6.229L395.723,85.823C388.505,80.338 379.507,77.07 369.761,77.07C346.047,77.07 326.751,96.354 326.751,120.063C326.751,143.769 346.047,163.067 369.761,163.067C393.465,163.067 412.759,143.769 412.759,120.063L412.759,6.229L395.723,6.229Z" style="fill:rgb(250,251,255);fill-rule:nonzero;"/>
                </g>
                <g transform="matrix(1,0,0,1,10422,2630.35)">
                    <path d="M21.131,58.636L46.236,76.564L71.334,58.636L71.334,22.06L21.131,22.06L21.131,58.636ZM21.131,146.824L71.334,146.824L71.334,113.985L46.236,96.066L21.131,113.985L21.131,146.824ZM79.275,162.69L13.197,162.69C8.812,162.69 5.27,159.136 5.27,154.757L5.27,109.905C5.27,107.345 6.513,104.938 8.594,103.455L32.591,86.314L8.594,69.174C6.513,67.684 5.27,65.277 5.27,62.713L5.27,14.127C5.27,9.749 8.812,6.198 13.197,6.198L79.275,6.198C83.651,6.198 87.196,9.749 87.196,14.127L87.196,62.713C87.196,65.277 85.961,67.684 83.88,69.174L59.881,86.314L83.88,103.455C85.961,104.938 87.196,107.345 87.196,109.905L87.196,154.757C87.196,159.136 83.651,162.69 79.275,162.69" style="fill:rgb(250,251,255);fill-rule:nonzero;"/>
                </g>
            </g>
        </g>
    </g>
</svg>
